<mxfile host="Electron" modified="2024-12-19T14:44:15.323Z" agent="Mozilla/5.0 (Windows NT 10.0; Win64; x64) AppleWebKit/537.36 (KHTML, like Gecko) draw.io/24.0.4 Chrome/120.0.6099.109 Electron/28.1.0 Safari/537.36" etag="bNDECiHfz8z3Rzom1yqR" version="24.0.4" type="device">
  <diagram name="Страница — 1" id="cbup92MBmwauKZz2ogqF">
    <mxGraphModel dx="2514" dy="993" grid="1" gridSize="10" guides="1" tooltips="1" connect="1" arrows="1" fold="1" page="1" pageScale="1" pageWidth="827" pageHeight="1169" math="0" shadow="0">
      <root>
        <mxCell id="0" />
        <mxCell id="1" parent="0" />
        <mxCell id="TcUzuV4ODmBadTa7yScQ-24" value="" style="edgeStyle=orthogonalEdgeStyle;rounded=0;orthogonalLoop=1;jettySize=auto;html=1;" edge="1" parent="1" source="TcUzuV4ODmBadTa7yScQ-1" target="TcUzuV4ODmBadTa7yScQ-16">
          <mxGeometry relative="1" as="geometry" />
        </mxCell>
        <mxCell id="TcUzuV4ODmBadTa7yScQ-1" value="" style="ellipse;whiteSpace=wrap;html=1;aspect=fixed;fillColor=#000000;" vertex="1" parent="1">
          <mxGeometry x="384" y="50" width="60" height="60" as="geometry" />
        </mxCell>
        <mxCell id="TcUzuV4ODmBadTa7yScQ-6" value="Система" style="swimlane;whiteSpace=wrap;html=1;rounded=1;" vertex="1" parent="1">
          <mxGeometry x="640" y="250" width="190" height="200" as="geometry">
            <mxRectangle x="314" y="270" width="140" height="30" as="alternateBounds" />
          </mxGeometry>
        </mxCell>
        <mxCell id="TcUzuV4ODmBadTa7yScQ-14" value="" style="ellipse;whiteSpace=wrap;html=1;aspect=fixed;fillColor=#000000;" vertex="1" parent="TcUzuV4ODmBadTa7yScQ-6">
          <mxGeometry x="80" y="25" width="30" height="30" as="geometry" />
        </mxCell>
        <mxCell id="TcUzuV4ODmBadTa7yScQ-15" value="" style="endArrow=classic;html=1;rounded=0;exitX=0.5;exitY=1;exitDx=0;exitDy=0;entryX=0.5;entryY=0;entryDx=0;entryDy=0;" edge="1" parent="TcUzuV4ODmBadTa7yScQ-6" source="TcUzuV4ODmBadTa7yScQ-14">
          <mxGeometry width="50" height="50" relative="1" as="geometry">
            <mxPoint x="-199" y="225" as="sourcePoint" />
            <mxPoint x="95" y="85" as="targetPoint" />
          </mxGeometry>
        </mxCell>
        <mxCell id="TcUzuV4ODmBadTa7yScQ-26" value="_timer.Stop()" style="swimlane;whiteSpace=wrap;html=1;rounded=1;" vertex="1" parent="TcUzuV4ODmBadTa7yScQ-6">
          <mxGeometry x="30" y="85" width="130" height="40" as="geometry" />
        </mxCell>
        <mxCell id="TcUzuV4ODmBadTa7yScQ-27" value="" style="ellipse;whiteSpace=wrap;html=1;aspect=fixed;" vertex="1" parent="TcUzuV4ODmBadTa7yScQ-6">
          <mxGeometry x="80" y="145" width="30" height="30" as="geometry" />
        </mxCell>
        <mxCell id="TcUzuV4ODmBadTa7yScQ-28" value="" style="ellipse;whiteSpace=wrap;html=1;aspect=fixed;fillColor=#000000;" vertex="1" parent="TcUzuV4ODmBadTa7yScQ-6">
          <mxGeometry x="85" y="150" width="20" height="20" as="geometry" />
        </mxCell>
        <mxCell id="TcUzuV4ODmBadTa7yScQ-29" value="" style="endArrow=classic;html=1;rounded=0;exitX=0.5;exitY=1;exitDx=0;exitDy=0;entryX=0.5;entryY=0;entryDx=0;entryDy=0;" edge="1" parent="TcUzuV4ODmBadTa7yScQ-6" source="TcUzuV4ODmBadTa7yScQ-26" target="TcUzuV4ODmBadTa7yScQ-27">
          <mxGeometry width="50" height="50" relative="1" as="geometry">
            <mxPoint x="-262" y="115" as="sourcePoint" />
            <mxPoint x="-212" y="65" as="targetPoint" />
          </mxGeometry>
        </mxCell>
        <mxCell id="TcUzuV4ODmBadTa7yScQ-7" value="tbP.text == 0?" style="swimlane;whiteSpace=wrap;html=1;rounded=1;" vertex="1" parent="1">
          <mxGeometry x="339" y="130" width="150" height="50" as="geometry" />
        </mxCell>
        <mxCell id="TcUzuV4ODmBadTa7yScQ-16" value="Да/Нет" style="text;html=1;align=center;verticalAlign=middle;resizable=0;points=[];autosize=1;strokeColor=none;fillColor=none;" vertex="1" parent="TcUzuV4ODmBadTa7yScQ-7">
          <mxGeometry x="45" y="20" width="60" height="30" as="geometry" />
        </mxCell>
        <mxCell id="TcUzuV4ODmBadTa7yScQ-11" value="" style="endArrow=classic;html=1;rounded=0;exitX=0.5;exitY=1;exitDx=0;exitDy=0;entryX=0.5;entryY=0;entryDx=0;entryDy=0;" edge="1" parent="1" source="TcUzuV4ODmBadTa7yScQ-1" target="TcUzuV4ODmBadTa7yScQ-7">
          <mxGeometry width="50" height="50" relative="1" as="geometry">
            <mxPoint x="30" y="270" as="sourcePoint" />
            <mxPoint x="80" y="220" as="targetPoint" />
          </mxGeometry>
        </mxCell>
        <mxCell id="TcUzuV4ODmBadTa7yScQ-18" value="Система" style="swimlane;whiteSpace=wrap;html=1;rounded=1;" vertex="1" parent="1">
          <mxGeometry x="-40" y="250" width="260" height="440" as="geometry">
            <mxRectangle x="314" y="270" width="140" height="30" as="alternateBounds" />
          </mxGeometry>
        </mxCell>
        <mxCell id="TcUzuV4ODmBadTa7yScQ-20" value="" style="ellipse;whiteSpace=wrap;html=1;aspect=fixed;fillColor=#000000;" vertex="1" parent="TcUzuV4ODmBadTa7yScQ-18">
          <mxGeometry x="115" y="30" width="30" height="30" as="geometry" />
        </mxCell>
        <mxCell id="TcUzuV4ODmBadTa7yScQ-21" value="" style="endArrow=classic;html=1;rounded=0;exitX=0.5;exitY=1;exitDx=0;exitDy=0;entryX=0.5;entryY=0;entryDx=0;entryDy=0;" edge="1" parent="TcUzuV4ODmBadTa7yScQ-18" source="TcUzuV4ODmBadTa7yScQ-20">
          <mxGeometry width="50" height="50" relative="1" as="geometry">
            <mxPoint x="-164" y="230" as="sourcePoint" />
            <mxPoint x="130" y="90" as="targetPoint" />
          </mxGeometry>
        </mxCell>
        <mxCell id="TcUzuV4ODmBadTa7yScQ-25" value="_timer.Start()" style="swimlane;whiteSpace=wrap;html=1;rounded=1;" vertex="1" parent="TcUzuV4ODmBadTa7yScQ-18">
          <mxGeometry x="65" y="90" width="130" height="40" as="geometry" />
        </mxCell>
        <mxCell id="TcUzuV4ODmBadTa7yScQ-32" value="_timer.Tick += UpdateGraph" style="swimlane;whiteSpace=wrap;html=1;rounded=1;startSize=40;" vertex="1" parent="TcUzuV4ODmBadTa7yScQ-18">
          <mxGeometry x="46.5" y="150" width="167" height="60" as="geometry" />
        </mxCell>
        <mxCell id="TcUzuV4ODmBadTa7yScQ-33" value="" style="endArrow=classic;html=1;rounded=0;exitX=0.5;exitY=1;exitDx=0;exitDy=0;entryX=0.5;entryY=0;entryDx=0;entryDy=0;" edge="1" parent="TcUzuV4ODmBadTa7yScQ-18" source="TcUzuV4ODmBadTa7yScQ-25" target="TcUzuV4ODmBadTa7yScQ-32">
          <mxGeometry width="50" height="50" relative="1" as="geometry">
            <mxPoint x="-21" y="240" as="sourcePoint" />
            <mxPoint x="29" y="190" as="targetPoint" />
          </mxGeometry>
        </mxCell>
        <mxCell id="TcUzuV4ODmBadTa7yScQ-34" value="Вычисляется влажност" style="swimlane;whiteSpace=wrap;html=1;rounded=1;startSize=40;" vertex="1" parent="TcUzuV4ODmBadTa7yScQ-18">
          <mxGeometry x="57.5" y="230" width="145" height="60" as="geometry" />
        </mxCell>
        <mxCell id="TcUzuV4ODmBadTa7yScQ-35" value="" style="endArrow=classic;html=1;rounded=0;exitX=0.5;exitY=1;exitDx=0;exitDy=0;entryX=0.5;entryY=0;entryDx=0;entryDy=0;" edge="1" parent="TcUzuV4ODmBadTa7yScQ-18" source="TcUzuV4ODmBadTa7yScQ-32" target="TcUzuV4ODmBadTa7yScQ-34">
          <mxGeometry width="50" height="50" relative="1" as="geometry">
            <mxPoint x="-120" y="280" as="sourcePoint" />
            <mxPoint x="-70" y="230" as="targetPoint" />
          </mxGeometry>
        </mxCell>
        <mxCell id="TcUzuV4ODmBadTa7yScQ-36" value="Рисуется график влажности" style="swimlane;whiteSpace=wrap;html=1;rounded=1;startSize=50;" vertex="1" parent="TcUzuV4ODmBadTa7yScQ-18">
          <mxGeometry x="42.5" y="310" width="175" height="65" as="geometry" />
        </mxCell>
        <mxCell id="TcUzuV4ODmBadTa7yScQ-37" value="" style="endArrow=classic;html=1;rounded=0;exitX=0.5;exitY=1;exitDx=0;exitDy=0;entryX=0.5;entryY=0;entryDx=0;entryDy=0;" edge="1" parent="TcUzuV4ODmBadTa7yScQ-18" source="TcUzuV4ODmBadTa7yScQ-34" target="TcUzuV4ODmBadTa7yScQ-36">
          <mxGeometry width="50" height="50" relative="1" as="geometry">
            <mxPoint x="-90" y="350" as="sourcePoint" />
            <mxPoint x="-40" y="300" as="targetPoint" />
          </mxGeometry>
        </mxCell>
        <mxCell id="TcUzuV4ODmBadTa7yScQ-38" value="" style="ellipse;whiteSpace=wrap;html=1;aspect=fixed;" vertex="1" parent="TcUzuV4ODmBadTa7yScQ-18">
          <mxGeometry x="115" y="390" width="30" height="30" as="geometry" />
        </mxCell>
        <mxCell id="TcUzuV4ODmBadTa7yScQ-39" value="" style="ellipse;whiteSpace=wrap;html=1;aspect=fixed;fillColor=#000000;" vertex="1" parent="TcUzuV4ODmBadTa7yScQ-18">
          <mxGeometry x="120" y="395" width="20" height="20" as="geometry" />
        </mxCell>
        <mxCell id="TcUzuV4ODmBadTa7yScQ-40" value="" style="endArrow=classic;html=1;rounded=0;exitX=0.5;exitY=1;exitDx=0;exitDy=0;entryX=0.5;entryY=0;entryDx=0;entryDy=0;" edge="1" parent="TcUzuV4ODmBadTa7yScQ-18" source="TcUzuV4ODmBadTa7yScQ-36" target="TcUzuV4ODmBadTa7yScQ-38">
          <mxGeometry width="50" height="50" relative="1" as="geometry">
            <mxPoint x="-70" y="430" as="sourcePoint" />
            <mxPoint x="-20" y="380" as="targetPoint" />
          </mxGeometry>
        </mxCell>
        <mxCell id="TcUzuV4ODmBadTa7yScQ-22" value="" style="endArrow=classic;html=1;rounded=0;exitX=1;exitY=0.5;exitDx=0;exitDy=0;entryX=0.5;entryY=0;entryDx=0;entryDy=0;" edge="1" parent="1" source="TcUzuV4ODmBadTa7yScQ-7" target="TcUzuV4ODmBadTa7yScQ-6">
          <mxGeometry width="50" height="50" relative="1" as="geometry">
            <mxPoint x="630" y="180" as="sourcePoint" />
            <mxPoint x="680" y="130" as="targetPoint" />
            <Array as="points">
              <mxPoint x="735" y="155" />
            </Array>
          </mxGeometry>
        </mxCell>
        <mxCell id="TcUzuV4ODmBadTa7yScQ-30" value="Нет" style="edgeLabel;html=1;align=center;verticalAlign=middle;resizable=0;points=[];" vertex="1" connectable="0" parent="TcUzuV4ODmBadTa7yScQ-22">
          <mxGeometry x="-0.5637" relative="1" as="geometry">
            <mxPoint as="offset" />
          </mxGeometry>
        </mxCell>
        <mxCell id="TcUzuV4ODmBadTa7yScQ-23" value="" style="endArrow=classic;html=1;rounded=0;exitX=0;exitY=0.5;exitDx=0;exitDy=0;entryX=0.5;entryY=0;entryDx=0;entryDy=0;" edge="1" parent="1" source="TcUzuV4ODmBadTa7yScQ-7" target="TcUzuV4ODmBadTa7yScQ-18">
          <mxGeometry width="50" height="50" relative="1" as="geometry">
            <mxPoint x="110" y="190" as="sourcePoint" />
            <mxPoint x="160" y="140" as="targetPoint" />
            <Array as="points">
              <mxPoint x="90" y="155" />
            </Array>
          </mxGeometry>
        </mxCell>
        <mxCell id="TcUzuV4ODmBadTa7yScQ-31" value="Да" style="edgeLabel;html=1;align=center;verticalAlign=middle;resizable=0;points=[];" vertex="1" connectable="0" parent="TcUzuV4ODmBadTa7yScQ-23">
          <mxGeometry x="-0.4402" y="-3" relative="1" as="geometry">
            <mxPoint as="offset" />
          </mxGeometry>
        </mxCell>
      </root>
    </mxGraphModel>
  </diagram>
</mxfile>
